<svg xmlns="http://www.w3.org/2000/svg" width="32" height="32" viewBox="0 0 24 24"><!-- Icon from Material Symbols Light by Google - https://github.com/google/material-design-icons/blob/master/LICENSE --><path fill="currentColor" d="m14.712 7.596l-2.289-2.288l2.289-2.289L17 5.308zm5 3l-1.289-1.288l1.289-1.289L21 9.308zM12.075 21q-1.888 0-3.543-.713T5.64 18.336t-1.951-2.893t-.714-3.543q0-2.92 1.68-5.265t4.436-3.27q-.104 2.34.717 4.501q.82 2.161 2.48 3.82q1.66 1.66 3.82 2.481t4.502.717q-.92 2.754-3.268 4.435T12.075 21m0-1q2.2 0 4.075-1.1t2.95-3.025q-2.15-.2-4.075-1.097t-3.45-2.422t-2.425-3.44T8.075 4.85Q6.15 5.925 5.063 7.813T3.975 11.9q0 3.375 2.363 5.738T12.075 20m-.5-7.644"/></svg>